<svg xmlns="http://www.w3.org/2000/svg" viewBox="0 0 64 64" fill="none">
	<rect width="64" height="64" rx="16" fill="#f8f2e8"/>
	<path d="M18 14h28a4 4 0 0 1 4 4v28a4 4 0 0 1-4 4H18a4 4 0 0 1-4-4V18a4 4 0 0 1 4-4Z" fill="#13110f"/>
	<path d="M23.5 22.5v19m0-19h8.5c3 0 5 1.6 5 4s-2 4-5 4h-8.5m8.5 0c3.3 0 5.5 1.8 5.5 4.5s-2.2 4.5-5.5 4.5h-8.5" stroke="#f8f2e8" stroke-width="4.2" stroke-linecap="round" stroke-linejoin="round"/>
	<path d="M39.5 23.2v14.7" stroke="#e8a82f" stroke-width="4.2" stroke-linecap="round"/>
	<path d="M45.4 18.2c.7-.7 1.8-.7 2.5 0l2.4 2.4c.7.7.7 1.8 0 2.5l-2.1 2.1-4.9-4.9 2.1-2.1Z" fill="#e8a82f"/>
	<path d="M43.2 27.2 48 22.4" stroke="#e8a82f" stroke-width="2.2" stroke-linecap="round"/>
</svg>